<?xml version="1.0" encoding="UTF-8"?>
<svg version="1.1" xmlns="http://www.w3.org/2000/svg" width="1600" height="1236">
<path d="M0 0 C528 0 1056 0 1600 0 C1600 407.88 1600 815.76 1600 1236 C1072 1236 544 1236 0 1236 C0 828.12 0 420.24 0 0 Z " fill="#FEFEFE" transform="translate(0,0)"/>
<path d="M0 0 C1.65 0 3.3 0 5 0 C9.72018877 15.52215922 13.05824816 31.35890856 16.51060486 47.1980896 C17.59159746 52.1535345 18.69286067 57.10393269 19.8125 62.05078125 C20.08843994 63.27418213 20.36437988 64.49758301 20.64868164 65.75805664 C21.15836509 68.01432481 21.6704072 70.27006204 22.18530273 72.52514648 C23.16826545 76.90106276 24.0853018 81.21370022 24.59765625 85.671875 C24.63320951 88.83891949 24.63320951 88.83891949 26 90 C26.32983299 91.34978393 26.60710964 92.71244475 26.86328125 94.078125 C27.03811035 94.98755859 27.21293945 95.89699219 27.39306641 96.83398438 C27.59335449 97.87876953 27.79364258 98.92355469 28 100 C32.28284238 121.42905194 36.89960746 142.75031678 42 164 C45.3 164.33 48.6 164.66 52 165 C52 165.99 52 166.98 52 168 C37.81 168 23.62 168 9 168 C9 167.01 9 166.02 9 165 C12.63 165 16.26 165 20 165 C19.46375 163.2675 18.9275 161.535 18.375 159.75 C14.8985671 147.67002095 12.57594787 135.29429665 10 123 C-4.85 122.505 -4.85 122.505 -20 122 C-20.825 126.393125 -21.65 130.78625 -22.5 135.3125 C-22.76103516 136.67415283 -23.02207031 138.03580566 -23.29101562 139.4387207 C-25.95595423 151.3570475 -25.95595423 151.3570475 -24 163 C-21.1840151 163.46898963 -21.1840151 163.46898963 -17.9375 163.625 C-16.83277344 163.69976563 -15.72804688 163.77453125 -14.58984375 163.8515625 C-13.30787109 163.92503906 -13.30787109 163.92503906 -12 164 C-12 165.32 -12 166.64 -12 168 C-23.22 168 -34.44 168 -46 168 C-46 166.68 -46 165.36 -46 164 C-44.7625 163.9175 -43.525 163.835 -42.25 163.75 C-39.4542367 163.37525924 -38.09548556 163.06193658 -35.6875 161.5 C-31.56195403 155.38808005 -30.34947362 147.61490632 -28.94921875 140.48046875 C-28.68020752 139.14790543 -28.68020752 139.14790543 -28.40576172 137.78842163 C-27.82803838 134.92242099 -27.2578281 132.05498043 -26.6875 129.1875 C-25.88792237 125.21043101 -25.08450464 121.23414023 -24.28125 117.2578125 C-24.08448166 116.28101028 -23.88771332 115.30420807 -23.6849823 114.29780579 C-22.08509507 106.37109369 -20.40756914 98.46396159 -18.6875 90.5625 C-16.76633757 81.7168507 -14.98091853 72.85779742 -13.32910156 63.95800781 C-12.47386523 59.37806355 -11.53072392 54.84318056 -10.4375 50.3125 C-9.27707278 45.45980437 -8.40798574 40.6110572 -7.625 35.6875 C-6.41185087 28.08092992 -4.94270392 20.54127396 -3.375 13 C-3.15666504 11.94256592 -2.93833008 10.88513184 -2.71337891 9.7956543 C-2.50632324 8.81121338 -2.29926758 7.82677246 -2.0859375 6.8125 C-1.9007959 5.93207031 -1.7156543 5.05164063 -1.52490234 4.14453125 C-1 2 -1 2 0 0 Z " fill="#050505" transform="translate(1014,484)"/>
<path d="M0 0 C3.37668038 1.63819147 5.45734887 1.84320552 9.15625 1.53125 C9.81625 -0.11875 10.47625 -1.76875 11.15625 -3.46875 C12.47625 -3.46875 13.79625 -3.46875 15.15625 -3.46875 C15.15625 11.38125 15.15625 26.23125 15.15625 41.53125 C13.83625 41.53125 12.51625 41.53125 11.15625 41.53125 C10.81013672 39.89929688 10.81013672 39.89929688 10.45703125 38.234375 C6.0923828 17.7200602 6.0923828 17.7200602 -7.03125 2.09375 C-12.24743303 -0.80412946 -16.98410367 -1.12608212 -22.84375 -0.46875 C-27.34943391 1.97999126 -29.87286484 5.86225161 -31.84375 10.53125 C-32.33833065 13.34899536 -32.32358207 16.05334307 -32.21875 18.90625 C-32.19180054 20.0348645 -32.19180054 20.0348645 -32.16430664 21.1862793 C-31.57332741 39.08423048 -21.63354948 51.31281301 -9.71875 64.03125 C7.95540328 83.01008056 23.81694433 103.64238444 23.3671875 130.55078125 C22.8119154 141.02897139 18.56155164 149.63982228 10.90625 156.84375 C1.67456189 164.24554893 -9.4708589 165.20927388 -20.84375 164.53125 C-26.96792901 163.43513258 -31.08089476 160.0074092 -35.66796875 155.95703125 C-38.30578336 154.22848128 -39.74683813 154.09470355 -42.84375 154.53125 C-45.30653801 156.99403801 -45.84146255 159.23801982 -46.84375 162.53125 C-48.16375 162.53125 -49.48375 162.53125 -50.84375 162.53125 C-50.84375 145.37125 -50.84375 128.21125 -50.84375 110.53125 C-49.52375 110.53125 -48.20375 110.53125 -46.84375 110.53125 C-46.71846924 111.10456055 -46.59318848 111.67787109 -46.46411133 112.26855469 C-40.93797491 138.66076146 -40.93797491 138.66076146 -23.84375 158.53125 C-20.93370097 159.61348366 -20.93370097 159.61348366 -17.84375 159.53125 C-17.13089844 159.57894531 -16.41804687 159.62664062 -15.68359375 159.67578125 C-10.64397708 159.9029426 -7.10502782 159.50423452 -2.84375 156.53125 C-0.5422461 153.66249461 -0.5422461 153.66249461 1.15625 150.53125 C1.51589844 149.94085937 1.87554688 149.35046875 2.24609375 148.7421875 C5.79702227 140.11632681 3.00940255 128.04764119 0.15625 119.53125 C-4.86831385 108.02640753 -12.80813256 98.43881936 -21.33691406 89.37866211 C-26.10629735 84.30496257 -30.53436963 79.00184065 -34.84375 73.53125 C-35.67326172 72.48710938 -35.67326172 72.48710938 -36.51953125 71.421875 C-40.41535168 66.38851527 -43.83209167 61.14004065 -46.84375 55.53125 C-47.26140625 54.76941406 -47.6790625 54.00757813 -48.109375 53.22265625 C-51.04942092 46.75248476 -51.22673289 40.40067937 -51.28125 33.40625 C-51.29140137 32.47586914 -51.30155273 31.54548828 -51.31201172 30.58691406 C-51.17622616 19.81204318 -47.82423164 11.74029641 -40.84375 3.53125 C-28.70365602 -8.02611947 -14.02289631 -8.25647166 0 0 Z " fill="#050505" transform="translate(594.84375,489.46875)"/>
<path d="M0 0 C14.52 0 29.04 0 44 0 C44 0.99 44 1.98 44 3 C40.37 3 36.74 3 33 3 C33.06120353 21.89796836 33.13810897 40.79579427 33.23571491 59.69361115 C33.28064357 68.46858009 33.32006498 77.24350872 33.34643555 86.01855469 C33.36943937 93.66860645 33.402864 101.31853031 33.44870156 108.96848059 C33.47260169 113.01752451 33.49135146 117.066442 33.49761391 121.11555481 C33.50367935 124.93069356 33.52373149 128.74550896 33.55427551 132.5605278 C33.56303244 133.95684434 33.56678319 135.35320318 33.56500816 136.74954605 C33.55858478 144.13748464 33.66054714 150.32215767 37 157 C40.7565817 160.66266715 43.97689233 162.13727603 49.1875 162.3125 C55.38065472 162.23180743 59.85118363 160.03266413 64.3125 155.8125 C69.21896448 147.6350592 69.42081508 139.66926152 69.34057617 130.31030273 C69.33972842 128.94938679 69.34020793 127.58846947 69.34190369 126.22755432 C69.34275929 122.55866041 69.3252048 118.89006481 69.30418181 115.22123981 C69.28534181 111.3775758 69.28365883 107.53390386 69.28010559 103.69020081 C69.27080652 96.42307857 69.24622194 89.15609283 69.21605712 81.88903052 C69.18244625 73.61088495 69.16601034 65.33273264 69.15097082 57.05453575 C69.11967029 40.03627841 69.06695174 23.01815367 69 6 C65.66688525 4.2175082 62.75519057 3.51207144 59 3 C59 2.01 59 1.02 59 0 C67.91 0 76.82 0 86 0 C86 0.99 86 1.98 86 3 C84.3603125 3.4021875 84.3603125 3.4021875 82.6875 3.8125 C78.63830658 5.06145939 78.63830658 5.06145939 76 8 C75.5514785 10.5395614 75.5514785 10.5395614 75.62818909 13.4498291 C75.62143158 14.58238129 75.61467407 15.71493347 75.60771179 16.88180542 C75.61543106 18.12543854 75.62315033 19.36907166 75.63110352 20.65039062 C75.62532148 22.66026602 75.61953678 24.67014142 75.61365211 26.68001652 C75.61016493 28.8425925 75.61402485 31.00504794 75.61987495 33.1676178 C75.6314622 37.68243637 75.61928925 42.19699843 75.60325623 46.71179199 C75.5670584 57.93288613 75.56082339 69.15397486 75.56335449 80.37512207 C75.56506967 89.08302262 75.55781041 97.79071341 75.52337593 106.49855566 C75.50666197 110.97734276 75.5083085 115.45561709 75.52419865 119.93440151 C75.53003767 122.73639427 75.5191797 125.53814944 75.50395203 128.34009933 C75.49851004 130.23806378 75.51275101 132.13605361 75.52781677 134.03396606 C75.44008919 144.61468752 73.34264637 153.55325389 65.85546875 161.34375 C57.84666815 168.49265832 48.13987227 168.47378239 37.88671875 168.2734375 C30.1291369 167.72767797 24.81030804 164.72442819 19.56640625 159.0546875 C11.91884894 149.02322829 10.70249409 138.93484757 10.77294922 126.72094727 C10.77351405 125.3800304 10.77319537 124.03911292 10.77206421 122.69819641 C10.7714925 119.07470474 10.78321725 115.45134662 10.79721212 111.82788587 C10.80974987 108.03491732 10.81089238 104.24194542 10.81326294 100.44895935 C10.81946878 93.27388811 10.83586743 86.09887811 10.85596192 78.92383379 C10.87834885 70.75213061 10.88932137 62.58042444 10.89935279 54.4086982 C10.92023449 37.60576199 10.95579782 20.80289124 11 4 C7.37 4 3.74 4 0 4 C0 2.68 0 1.36 0 0 Z " fill="#060606" transform="translate(678,486)"/>
<path d="M0 0 C14.19 0 28.38 0 43 0 C43 1.32 43 2.64 43 4 C39.7 4 36.4 4 33 4 C37.09786922 26.82585046 42.04664823 49.48867104 47.12890625 72.11230469 C48.70395221 79.14174188 50.26299133 86.17474158 51.82427979 93.20724487 C52.70262759 97.16302242 53.58180477 101.11861559 54.4609375 105.07421875 C54.76090905 106.42407135 55.06087693 107.77392477 55.36083984 109.1237793 C55.5717627 110.07293213 55.78268555 111.02208496 56 112 C56.309375 111.38125 56.61875 110.7625 56.9375 110.125 C57.625 108.75 58.3125 107.375 59 106 C59.30862291 104.35190534 59.57912676 102.69662198 59.83203125 101.0390625 C61.21947272 92.43820413 62.96606297 83.91385237 64.6875 75.375 C65.04051821 73.6167951 65.39346313 71.85857549 65.74633789 70.1003418 C68.90052371 54.40712179 72.12127252 38.72767128 75.37084961 23.05395508 C75.57846924 22.0461499 75.78608887 21.03834473 76 20 C76.1863501 19.11401123 76.3727002 18.22802246 76.56469727 17.31518555 C77.37163203 13.02345117 77.88415079 9.46077088 75.5625 5.625 C71.87920157 3.28924977 68.29081462 3.18336815 64 3 C64 2.01 64 1.02 64 0 C74.89 0 85.78 0 97 0 C97 0.99 97 1.98 97 3 C95.783125 3.20625 94.56625 3.4125 93.3125 3.625 C89.70950256 4.57985798 87.27228907 5.75474414 85.00610352 8.87841797 C83.71179849 11.60773384 83.18030907 14.23197538 82.58984375 17.1953125 C82.33404541 18.44763672 82.07824707 19.69996094 81.81469727 20.99023438 C81.61518967 21.97938843 81.61518967 21.97938843 81.41165161 22.98852539 C80.73304782 26.30442229 80.00094088 29.60863749 79.2734375 32.9140625 C75.67843272 49.36739318 72.16613842 65.83690884 68.7744751 82.33343506 C68.38947158 84.20544811 68.00339988 86.07724187 67.6161499 87.9487915 C65.54496256 97.97036615 63.57965121 107.98866636 61.99064636 118.09941101 C61.17452843 123.23936817 60.00836671 128.21512286 58.6796875 133.2421875 C57.76829008 136.94015634 57.19372249 140.66107333 56.60546875 144.421875 C55.2694983 152.31702938 53.59934096 160.15461569 52 168 C50.02 168 48.04 168 46 168 C42.56995657 154.05890175 39.31040494 140.08882896 36.25 126.0625 C36.10174774 125.38413086 35.95349548 124.70576172 35.80075073 124.00683594 C34.30520473 117.15391967 32.84469834 110.29735892 31.48730469 103.41577148 C30.54914255 98.76491261 29.51809837 94.13389016 28.5 89.5 C26.12629803 78.6960595 26.12629803 78.6960595 25.11328125 73.48828125 C23.47006412 65.18666278 21.54948051 56.94211915 19.6875 48.6875 C19.48746368 47.79792603 19.28742737 46.90835205 19.08132935 45.99182129 C16.58745411 34.90153796 14.08204385 23.81543556 11.32104492 12.7878418 C10.48283377 9.38117402 10 6.53654785 10 3 C6.7 3 3.4 3 0 3 C0 2.01 0 1.02 0 0 Z " fill="#050505" transform="translate(820,486)"/>
<path d="M0 0 C0.66 0 1.32 0 2 0 C2.18062988 0.97420898 2.36125977 1.94841797 2.54736328 2.95214844 C3.40182783 7.55232354 4.26213102 12.15139439 5.125 16.75 C5.2810672 17.58190857 5.4371344 18.41381714 5.59793091 19.27093506 C7.95039545 31.77673601 10.46331898 44.23196025 13.22119141 56.65527344 C13.45628418 57.72036133 13.69137695 58.78544922 13.93359375 59.8828125 C14.14040771 60.80465332 14.34722168 61.72649414 14.56030273 62.67626953 C15 65 15 65 15 68 C5.76 68 -3.48 68 -13 68 C-11.87785264 59.02282113 -11.87785264 59.02282113 -10.87890625 54.8984375 C-10.66669434 54.00302246 -10.45448242 53.10760742 -10.23583984 52.18505859 C-10.0136377 51.25773926 -9.79143555 50.33041992 -9.5625 49.375 C-7.82242482 41.9522413 -6.41546361 34.65791917 -5.4609375 27.09375 C-4.84613785 22.96729812 -3.79999727 19.00493896 -2.73046875 14.9765625 C-1.51825856 10.03696805 -0.75752803 5.02642127 0 0 Z " fill="#F7F7F7" transform="translate(1008,534)"/>
<path d="M0 0 C2.475 0.495 2.475 0.495 5 1 C4.09759118 6.62071778 2.96147497 12.182347 1.81640625 17.7578125 C1.1642445 21.02821185 0.62347807 24.30860334 0.09765625 27.6015625 C-1.04442804 34.54574056 -2.56800802 41.38880567 -4.125 48.25 C-4.54072266 50.10044922 -4.54072266 50.10044922 -4.96484375 51.98828125 C-5.64029228 54.99286263 -6.31872183 57.99673613 -7 61 C-7.66 61 -8.32 61 -9 61 C-9 61.99 -9 62.98 -9 64 C-7.515 63.505 -7.515 63.505 -6 63 C-4.37066846 62.98439237 -2.74026903 63.03234896 -1.11328125 63.12109375 C-0.17548828 63.16943359 0.76230469 63.21777344 1.72851562 63.26757812 C3.19321289 63.35168945 3.19321289 63.35168945 4.6875 63.4375 C6.16959961 63.51581055 6.16959961 63.51581055 7.68164062 63.59570312 C10.12141676 63.72535306 12.56078105 63.86031742 15 64 C15 64.33 15 64.66 15 65 C7.41 65 -0.18 65 -8 65 C-8.84543152 69.43549607 -9.67661627 73.87290397 -10.5 78.3125 C-10.85771484 80.17745117 -10.85771484 80.17745117 -11.22265625 82.08007812 C-13.9554006 94.17448371 -13.9554006 94.17448371 -12 106 C-9.1840151 106.46898963 -9.1840151 106.46898963 -5.9375 106.625 C-4.83277344 106.69976563 -3.72804688 106.77453125 -2.58984375 106.8515625 C-1.30787109 106.92503906 -1.30787109 106.92503906 0 107 C0 108.32 0 109.64 0 111 C-11.22 111 -22.44 111 -34 111 C-34 109.68 -34 108.36 -34 107 C-32.7625 106.9175 -31.525 106.835 -30.25 106.75 C-27.4542367 106.37525924 -26.09548556 106.06193658 -23.6875 104.5 C-19.56195403 98.38808005 -18.34947362 90.61490632 -16.94921875 83.48046875 C-16.68020752 82.14790543 -16.68020752 82.14790543 -16.40576172 80.78842163 C-15.82803838 77.92242099 -15.2578281 75.05498043 -14.6875 72.1875 C-13.88792237 68.21043101 -13.08450464 64.23414023 -12.28125 60.2578125 C-12.08448166 59.28101028 -11.88771332 58.30420807 -11.6849823 57.29780579 C-10.08509464 49.37109154 -8.40747759 41.46398308 -6.6875 33.5625 C-4.26644458 22.40914726 -2.06509973 11.22442442 0 0 Z " fill="#171717" transform="translate(1002,541)"/>
<path d="M0 0 C10.89 0 21.78 0 33 0 C33 0.99 33 1.98 33 3 C31.783125 3.20625 30.56625 3.4125 29.3125 3.625 C25.70950256 4.57985798 23.27228907 5.75474414 21.00610352 8.87841797 C19.71179849 11.60773384 19.18030907 14.23197538 18.58984375 17.1953125 C18.33404541 18.44763672 18.07824707 19.69996094 17.81469727 20.99023438 C17.6816922 21.64967041 17.54868713 22.30910645 17.41165161 22.98852539 C16.73304776 26.30442256 16.00092287 29.60863337 15.2734375 32.9140625 C9.23602792 60.55180719 3.53656868 88.25777286 -2 116 C-2.99 116 -3.98 116 -5 116 C-5.495 116.99 -5.495 116.99 -6 118 C-6.66 118 -7.32 118 -8 118 C-7.80664062 117.27296875 -7.61328125 116.5459375 -7.4140625 115.796875 C-7.15367187 114.79140625 -6.89328125 113.7859375 -6.625 112.75 C-6.36976563 111.77546875 -6.11453125 110.8009375 -5.8515625 109.796875 C-5.1731992 106.77224597 -4.62103016 103.79892698 -4.12890625 100.7421875 C-2.74738736 92.24255703 -1.01402385 83.81507694 0.6875 75.375 C1.04051821 73.6167951 1.39346313 71.85857549 1.74633789 70.1003418 C4.90052371 54.40712179 8.12127252 38.72767128 11.37084961 23.05395508 C11.68227905 21.54224731 11.68227905 21.54224731 12 20 C12.1863501 19.11401123 12.3727002 18.22802246 12.56469727 17.31518555 C13.37163203 13.02345117 13.88415079 9.46077088 11.5625 5.625 C7.87920157 3.28924977 4.29081462 3.18336815 0 3 C0 2.01 0 1.02 0 0 Z " fill="#0F0F0F" transform="translate(884,486)"/>
<path d="M0 0 C1.32 0 2.64 0 4 0 C4.12528076 0.57331055 4.25056152 1.14662109 4.37963867 1.73730469 C9.90577509 28.12951146 9.90577509 28.12951146 27 48 C29.91004903 49.08223366 29.91004903 49.08223366 33 49 C33.72445312 49.02449219 34.44890625 49.04898438 35.1953125 49.07421875 C39.26560368 49.16153523 43.03256562 49.02385403 47 48 C46.625 50.4375 46.625 50.4375 46 53 C40.57839332 55.71080334 31.36806984 54.81566001 25.6875 52.9375 C21.67030893 51.16166017 18.44636489 48.31370062 15.17578125 45.42578125 C12.53796664 43.69723128 11.09691187 43.56345355 8 44 C5.53721199 46.46278801 5.00228745 48.70676982 4 52 C2.68 52 1.36 52 0 52 C0 34.84 0 17.68 0 0 Z " fill="#0A0A0A" transform="translate(544,600)"/>
<path d="M0 0 C5.81051642 0.68308154 9.94074279 2.92293709 15 5.72265625 C18.25157661 7.1071166 20.50446943 7.24447907 24 7 C24.66 5.35 25.32 3.7 26 2 C27.32 2 28.64 2 30 2 C30 16.85 30 31.7 30 47 C28.68 47 27.36 47 26 47 C25.76925781 45.91203125 25.53851562 44.8240625 25.30078125 43.703125 C22.34701182 30.21095921 19.03586522 17.10146228 8.3125 7.625 C3.70260665 5.36354288 -0.94168502 4.6840426 -6 4 C-6 3.67 -6 3.34 -6 3 C-4.35 3 -2.7 3 -1 3 C-0.67 2.01 -0.34 1.02 0 0 Z " fill="#070707" transform="translate(580,484)"/>
<path d="M0 0 C8.91 0 17.82 0 27 0 C27 0.99 27 1.98 27 3 C25.3603125 3.4021875 25.3603125 3.4021875 23.6875 3.8125 C19.63697199 5.06037623 19.63697199 5.06037623 17 8 C16.54013216 10.57189263 16.54013216 10.57189263 16.60127258 13.52384949 C16.58873444 14.67229843 16.57619629 15.82074738 16.5632782 17.0039978 C16.56471329 18.26491241 16.56614838 19.52582703 16.56762695 20.82495117 C16.55861148 22.16528733 16.54828479 23.50561522 16.53674316 24.84593201 C16.50912135 28.48615579 16.4998817 32.12622336 16.49388909 35.76653838 C16.48451882 39.57027763 16.45831659 43.37389958 16.43388367 47.17756653 C16.39017776 54.38105116 16.361656 61.58451308 16.33856028 68.78809005 C16.31153048 76.98879642 16.26761766 85.18938502 16.22227156 93.39000738 C16.12936673 110.25994433 16.0577128 127.12990671 16 144 C15.67 144 15.34 144 15 144 C14.67 100.44 14.34 56.88 14 12 C12.33677179 13.66322821 12.85755986 15.6538204 12.84178162 17.94166565 C12.82709839 19.54662399 12.82709839 19.54662399 12.81211853 21.18400574 C12.80636307 22.36795425 12.8006076 23.55190277 12.79467773 24.77172852 C12.77982834 26.63000275 12.77982834 26.63000275 12.76467896 28.52581787 C12.73842776 31.93266974 12.71659204 35.33949737 12.69667697 38.74638867 C12.67485558 42.30319609 12.64744814 45.85996024 12.62062073 49.41673279 C12.57064165 56.15633442 12.52572224 62.89596001 12.48259836 69.63560861 C12.43327046 77.30661472 12.37833589 84.97757742 12.32291877 92.64854157 C12.2090187 108.43232097 12.10219723 124.21614023 12 140 C11.67 140 11.34 140 11 140 C10.67 95.78 10.34 51.56 10 6 C6.39338934 4.19669467 3.91606575 3.53400897 0 3 C0 2.01 0 1.02 0 0 Z " fill="#444444" transform="translate(737,486)"/>
<path d="M0 0 C0.47050781 0.40992188 0.94101562 0.81984375 1.42578125 1.2421875 C2.04839844 1.78101563 2.67101562 2.31984375 3.3125 2.875 C3.92738281 3.40867187 4.54226563 3.94234375 5.17578125 4.4921875 C11.16123925 9.43948255 17.5464658 9.35623509 25 9 C27.89086974 8.57549372 27.89086974 8.57549372 30 8 C29.625 10.4375 29.625 10.4375 29 13 C23.57839332 15.71080334 14.36806984 14.81566001 8.6875 12.9375 C3.93011369 10.81163974 -0.0477173 7.33931293 -4 4 C-2.66666667 2.66666667 -1.33333333 1.33333333 0 0 Z " fill="#0B0B0B" transform="translate(561,640)"/>
<path d="M0 0 C1.32 0.33 2.64 0.66 4 1 C3.50751553 8.87975144 0.19179102 14.28351005 -5.6875 19.5 C-8.68617021 22 -8.68617021 22 -11 22 C-11.33 21.01 -11.66 20.02 -12 19 C-11.236875 18.2575 -10.47375 17.515 -9.6875 16.75 C-5.98496248 12.96135696 -3.70425921 9.70771379 -1.8125 4.75 C-1.29623047 3.41195312 -1.29623047 3.41195312 -0.76953125 2.046875 C-0.51558594 1.37140625 -0.26164063 0.6959375 0 0 Z " fill="#131313" transform="translate(748,629)"/>
<path d="M0 0 C0.103125 0.639375 0.20625 1.27875 0.3125 1.9375 C0.539375 2.618125 0.76625 3.29875 1 4 C1.99 4.33 2.98 4.66 4 5 C3.7186941 7.45993028 3.42547269 9.91740248 3.125 12.375 C3.04636719 13.07367187 2.96773437 13.77234375 2.88671875 14.4921875 C2.2265625 19.7734375 2.2265625 19.7734375 0 22 C-0.66 22 -1.32 22 -2 22 C-2.33 22.66 -2.66 23.32 -3 24 C-3.66 24 -4.32 24 -5 24 C-4.80664062 23.27296875 -4.61328125 22.5459375 -4.4140625 21.796875 C-2.54377442 14.57497053 -1.11159417 7.37575426 0 0 Z " fill="#1F1F1F" transform="translate(881,580)"/>
<path d="M0 0 C4.17443363 3.50074982 8.3145494 6.97950843 12 11 C12 11.66 12 12.32 12 13 C7.44299575 12.47515308 4.807126 10.68492697 1.1875 7.9375 C0.21167969 7.20402344 -0.76414062 6.47054687 -1.76953125 5.71484375 C-2.50558594 5.14894531 -3.24164062 4.58304688 -4 4 C-2.66666667 2.66666667 -1.33333333 1.33333333 0 0 Z " fill="#161616" transform="translate(561,640)"/>
<path d="M0 0 C5.54050113 0.56825653 10.03715966 2.62886517 15 5 C14.01 5.66 13.02 6.32 12 7 C12 7.99 12 8.98 12 10 C11.3709375 9.65066406 10.741875 9.30132812 10.09375 8.94140625 C4.59021685 6.01558215 0.23116607 4.34617589 -6 4 C-6 3.67 -6 3.34 -6 3 C-4.35 3 -2.7 3 -1 3 C-0.67 2.01 -0.34 1.02 0 0 Z " fill="#232323" transform="translate(580,484)"/>
<path d="M0 0 C1.65 0 3.3 0 5 0 C5 0.33 5 0.66 5 1 C11.6 1 18.2 1 25 1 C25 0.67 25 0.34 25 0 C27.97 0 30.94 0 34 0 C34 0.99 34 1.98 34 3 C22.78 3 11.56 3 0 3 C0 2.01 0 1.02 0 0 Z " fill="#000000" transform="translate(968,649)"/>
<path d="M0 0 C1.51400391 0.01740234 1.51400391 0.01740234 3.05859375 0.03515625 C4.07050781 0.04417969 5.08242188 0.05320312 6.125 0.0625 C7.29869141 0.07990234 7.29869141 0.07990234 8.49609375 0.09765625 C8.49609375 1.41765625 8.49609375 2.73765625 8.49609375 4.09765625 C5.19609375 4.09765625 1.89609375 4.09765625 -1.50390625 4.09765625 C-1.83390625 5.08765625 -2.16390625 6.07765625 -2.50390625 7.09765625 C-2.88523924 5.10625065 -3.21716207 3.10486548 -3.50390625 1.09765625 C-2.50390625 0.09765625 -2.50390625 0.09765625 0 0 Z " fill="#2A2A2A" transform="translate(854.50390625,485.90234375)"/>
<path d="M0 0 C2.0625 0.4375 2.0625 0.4375 4 1 C3.25 7.75 3.25 7.75 1 10 C1 9.34 1 8.68 1 8 C0.01 8.33 -0.98 8.66 -2 9 C-1.125 1.125 -1.125 1.125 0 0 Z " fill="#1E1E1E" transform="translate(748,629)"/>
<path d="M0 0 C1 3 1 3 0 6 C0.99 5.67 1.98 5.34 3 5 C2.67 6.98 2.34 8.96 2 11 C1.01 11 0.02 11 -1 11 C-1.33 11.66 -1.66 12.32 -2 13 C-2.66 13 -3.32 13 -4 13 C-3.52511102 11.01980257 -3.04497141 9.04086365 -2.5625 7.0625 C-2.29566406 5.96035156 -2.02882813 4.85820313 -1.75390625 3.72265625 C-1 1 -1 1 0 0 Z " fill="#373737" transform="translate(880,591)"/>
<path d="M0 0 C2.0625 1.6875 2.0625 1.6875 4 4 C3.75 6.75 3.75 6.75 3 9 C2.34 9 1.68 9 1 9 C0.34 10.65 -0.32 12.3 -1 14 C-2.13732426 10.59598052 -1.83989957 8.22543336 -1.0625 4.75 C-0.86785156 3.85796875 -0.67320312 2.9659375 -0.47265625 2.046875 C-0.31667969 1.37140625 -0.16070313 0.6959375 0 0 Z " fill="#252525" transform="translate(885,560)"/>
<path d="M0 0 C0.66 0.33 1.32 0.66 2 1 C1.67 2.32 1.34 3.64 1 5 C-0.65 5 -2.3 5 -4 5 C-4 4.34 -4 3.68 -4 3 C-4.61488281 3.02320313 -5.22976563 3.04640625 -5.86328125 3.0703125 C-7.07564453 3.09738281 -7.07564453 3.09738281 -8.3125 3.125 C-9.11300781 3.14820313 -9.91351562 3.17140625 -10.73828125 3.1953125 C-13 3 -13 3 -16 1 C-15.09636719 1.01160156 -14.19273437 1.02320313 -13.26171875 1.03515625 C-11.49248047 1.04869141 -11.49248047 1.04869141 -9.6875 1.0625 C-8.51574219 1.07410156 -7.34398437 1.08570313 -6.13671875 1.09765625 C-2.96940805 1.14899898 -2.96940805 1.14899898 0 0 Z " fill="#3A3A3A" transform="translate(589,648)"/>
<path d="M0 0 C1.65 0.33 3.3 0.66 5 1 C4.8125 3.875 4.8125 3.875 4 7 C1.4375 8.375 1.4375 8.375 -1 9 C-0.67 6.03 -0.34 3.06 0 0 Z " fill="#272727" transform="translate(1002,541)"/>
<path d="M0 0 C2.32590854 3.63423209 2.16265833 6.77088331 2 11 C0.68 10.67 -0.64 10.34 -2 10 C-1.85950482 8.52031676 -1.71245174 7.04125484 -1.5625 5.5625 C-1.48128906 4.73878906 -1.40007813 3.91507813 -1.31640625 3.06640625 C-1 1 -1 1 0 0 Z " fill="#060606" transform="translate(750,619)"/>
<path d="M0 0 C2.97 0 5.94 0 9 0 C9 0.99 9 1.98 9 3 C6.1875 3.1875 6.1875 3.1875 3 3 C2.01 2.01 1.02 1.02 0 0 Z " fill="#0B0B0B" transform="translate(993,649)"/>
<path d="M0 0 C0.66 0.33 1.32 0.66 2 1 C1.67 2.65 1.34 4.3 1 6 C0.01 6 -0.98 6 -2 6 C-2.33 6.99 -2.66 7.98 -3 9 C-2.4140625 2.84765625 -2.4140625 2.84765625 -2 1 C-1.34 0.67 -0.68 0.34 0 0 Z " fill="#050505" transform="translate(884,579)"/>
<path d="M0 0 C2.66735273 2.48952921 4.55746343 4.63408134 6 8 C5.01 8 4.02 8 3 8 C2.67 7.01 2.34 6.02 2 5 C1.01 4.67 0.02 4.34 -1 4 C-0.67 2.68 -0.34 1.36 0 0 Z " fill="#E3E3E3" transform="translate(558,560)"/>
<path d="M0 0 C4.75 0.75 4.75 0.75 7 3 C6.01 3.33 5.02 3.66 4 4 C4 4.99 4 5.98 4 7 C3.34 6.67 2.68 6.34 2 6 C2 4.68 2 3.36 2 2 C1.34 2 0.68 2 0 2 C0 1.34 0 0.68 0 0 Z " fill="#171717" transform="translate(588,487)"/>
<path d="M0 0 C0.99 0 1.98 0 3 0 C3.66 1.65 4.32 3.3 5 5 C3.35 4.67 1.7 4.34 0 4 C0 2.68 0 1.36 0 0 Z " fill="#1C1C1C" transform="translate(568,648)"/>
</svg>
